<svg width="1152" height="1058" viewBox="0 0 1152 1058" fill="none" xmlns="http://www.w3.org/2000/svg">
<rect x="327" y="54" width="497" height="89" fill="#D9D9D9"/>
<rect x="144" y="197" width="864" height="861" fill="#1FAFD9"/>
<rect x="193" y="143" width="766" height="62" fill="#1FAFD9"/>
<circle cx="576" cy="595.5" r="432" fill="#47403D"/>
<path d="M193.5 143L243 197L193.5 251L144 197L193.5 143Z" fill="#1FAFD9"/>
<path d="M958.5 143L1008 197L958.5 251L909 197L958.5 143Z" fill="#1FAFD9"/>
<path d="M284.077 0L233 143H330V0H284.077Z" fill="#D9D9D9"/>
<path d="M866.923 0L918 143H821V0H866.923Z" fill="#D9D9D9"/>
<path d="M544.974 590.763C549.507 592.294 549.507 598.706 544.974 600.237L146.35 734.866C143.109 735.961 139.75 733.55 139.75 730.129L139.75 460.871C139.75 457.45 143.109 455.039 146.35 456.134L544.974 590.763Z" fill="#F7D859"/>
<path d="M607.026 600.237C602.493 598.706 602.493 592.294 607.026 590.763L1005.65 456.134C1008.89 455.039 1012.25 457.45 1012.25 460.871L1012.25 730.129C1012.25 733.55 1008.89 735.961 1005.65 734.866L607.026 600.237Z" fill="#F7D859"/>
<path d="M362 221L502.5 372.5H650L790.5 220.5C739.053 192.034 708.139 180.853 650 168.5L620 90H530.5L502.5 165C439.511 178.176 407.853 189.486 362 221Z" fill="#E50323"/>
<path d="M790.5 970.499L650 818.999L502.5 818.999L362 970.999C413.447 999.465 444.361 1010.65 502.5 1023L532.5 1057.5L622 1057.5L650 1026.5C712.989 1013.32 744.647 1002.01 790.5 970.499Z" fill="#E50323"/>
<circle cx="576" cy="595.5" r="279" fill="#F7D859"/>
<circle cx="576" cy="595.5" r="197" fill="#0D7610"/>
<path d="M358.514 318.31L293.607 383.217L204 335.104L310.103 229L358.514 318.31Z" fill="#D9D9D9"/>
<path d="M859.492 383.713L794.585 318.806L842.699 229.199L948.803 335.303L859.492 383.713Z" fill="#D9D9D9"/>
<path d="M794.289 876.853L859.196 811.946L948.803 860.06L842.699 966.163L794.289 876.853Z" fill="#D9D9D9"/>
<path d="M293.31 811.45L358.217 876.357L310.103 965.964L204 859.86L293.31 811.45Z" fill="#D9D9D9"/>
</svg>
