<svg width="503" height="799" viewBox="0 0 503 799" fill="none" xmlns="http://www.w3.org/2000/svg">
    <path fill-rule="evenodd" clip-rule="evenodd" d="M10 83.5L75 17.5H424L491 84.5V715L413.5 792.5H55L10 747.5V83.5ZM125 79H115.5C111.8 104.424 102.56 112.094 76 116.5V129.5L90.5 144V184.5L61.5 212.5V414L126.5 457V607L255.5 675L283.5 644.5H416.5V612.5L442 587V212L410.5 180.5V103.5L405 98H144L125 79ZM448.5 130.5H465.5V187.5H448.5V130.5ZM55.5 130.5H38.5V187.5H55.5V130.5ZM446.5 615.5H463.5V672.5H446.5V615.5ZM55.5 615.5H38.5V672.5H55.5V615.5Z" fill="var(--bg)"/>
    <path d="M75 17.5V16.5H74.5813L74.2875 16.7983L75 17.5ZM10 83.5L9.28752 82.7983L9 83.0903V83.5H10ZM424 17.5L424.707 16.7929L424.414 16.5H424V17.5ZM491 84.5H492V84.0858L491.707 83.7929L491 84.5ZM491 715L491.707 715.707L492 715.414V715H491ZM413.5 792.5V793.5H413.914L414.207 793.207L413.5 792.5ZM55 792.5L54.2929 793.207L54.5858 793.5H55V792.5ZM10 747.5H9V747.914L9.29289 748.207L10 747.5ZM115.5 79V78H114.635L114.51 78.856L115.5 79ZM125 79L125.707 78.2929L125.414 78H125V79ZM76 116.5L75.8364 115.513L75 115.652V116.5H76ZM76 129.5H75V129.914L75.2929 130.207L76 129.5ZM90.5 144H91.5V143.586L91.2071 143.293L90.5 144ZM90.5 184.5L91.1946 185.219L91.5 184.925V184.5H90.5ZM61.5 212.5L60.8054 211.781L60.5 212.075V212.5H61.5ZM61.5 414H60.5V414.537L60.9483 414.834L61.5 414ZM126.5 457H127.5V456.463L127.052 456.166L126.5 457ZM126.5 607H125.5V607.603L126.034 607.885L126.5 607ZM255.5 675L255.034 675.885L255.715 676.244L256.237 675.676L255.5 675ZM283.5 644.5V643.5H283.061L282.763 643.824L283.5 644.5ZM416.5 644.5V645.5H417.5V644.5H416.5ZM416.5 612.5L415.793 611.793L415.5 612.086V612.5H416.5ZM442 587L442.707 587.707L443 587.414V587H442ZM442 212H443V211.586L442.707 211.293L442 212ZM410.5 180.5H409.5V180.914L409.793 181.207L410.5 180.5ZM410.5 103.5H411.5V103.086L411.207 102.793L410.5 103.5ZM405 98L405.707 97.2929L405.414 97H405V98ZM144 98L143.293 98.7071L143.586 99H144V98ZM465.5 130.5H466.5V129.5H465.5V130.5ZM448.5 130.5V129.5H447.5V130.5H448.5ZM465.5 187.5V188.5H466.5V187.5H465.5ZM448.5 187.5H447.5V188.5H448.5V187.5ZM38.5 130.5V129.5H37.5V130.5H38.5ZM55.5 130.5H56.5V129.5H55.5V130.5ZM38.5 187.5H37.5V188.5H38.5V187.5ZM55.5 187.5V188.5H56.5V187.5H55.5ZM463.5 615.5H464.5V614.5H463.5V615.5ZM446.5 615.5V614.5H445.5V615.5H446.5ZM463.5 672.5V673.5H464.5V672.5H463.5ZM446.5 672.5H445.5V673.5H446.5V672.5ZM38.5 615.5V614.5H37.5V615.5H38.5ZM55.5 615.5H56.5V614.5H55.5V615.5ZM38.5 672.5H37.5V673.5H38.5V672.5ZM55.5 672.5V673.5H56.5V672.5H55.5ZM74.2875 16.7983L9.28752 82.7983L10.7125 84.2017L75.7125 18.2017L74.2875 16.7983ZM424 16.5H75V18.5H424V16.5ZM491.707 83.7929L424.707 16.7929L423.293 18.2071L490.293 85.2071L491.707 83.7929ZM492 715V84.5H490V715H492ZM414.207 793.207L491.707 715.707L490.293 714.293L412.793 791.793L414.207 793.207ZM55 793.5H413.5V791.5H55V793.5ZM9.29289 748.207L54.2929 793.207L55.7071 791.793L10.7071 746.793L9.29289 748.207ZM9 83.5V747.5H11V83.5H9ZM115.5 80H125V78H115.5V80ZM76.1636 117.487C89.4781 115.278 98.6817 112.223 105.002 106.365C111.346 100.487 114.628 91.9361 116.49 79.144L114.51 78.856C112.672 91.4878 109.485 99.4844 103.643 104.898C97.7782 110.333 89.0818 113.316 75.8364 115.513L76.1636 117.487ZM77 129.5V116.5H75V129.5H77ZM91.2071 143.293L76.7071 128.793L75.2929 130.207L89.7929 144.707L91.2071 143.293ZM91.5 184.5V144H89.5V184.5H91.5ZM62.1946 213.219L91.1946 185.219L89.8054 183.781L60.8054 211.781L62.1946 213.219ZM62.5 414V212.5H60.5V414H62.5ZM127.052 456.166L62.0517 413.166L60.9483 414.834L125.948 457.834L127.052 456.166ZM127.5 607V457H125.5V607H127.5ZM255.966 674.115L126.966 606.115L126.034 607.885L255.034 675.885L255.966 674.115ZM282.763 643.824L254.763 674.324L256.237 675.676L284.237 645.176L282.763 643.824ZM416.5 643.5H283.5V645.5H416.5V643.5ZM415.5 612.5V644.5H417.5V612.5H415.5ZM441.293 586.293L415.793 611.793L417.207 613.207L442.707 587.707L441.293 586.293ZM441 212V587H443V212H441ZM409.793 181.207L441.293 212.707L442.707 211.293L411.207 179.793L409.793 181.207ZM409.5 103.5V180.5H411.5V103.5H409.5ZM404.293 98.7071L409.793 104.207L411.207 102.793L405.707 97.2929L404.293 98.7071ZM144 99H405V97H144V99ZM124.293 79.7071L143.293 98.7071L144.707 97.2929L125.707 78.2929L124.293 79.7071ZM465.5 129.5H448.5V131.5H465.5V129.5ZM466.5 187.5V130.5H464.5V187.5H466.5ZM448.5 188.5H465.5V186.5H448.5V188.5ZM447.5 130.5V187.5H449.5V130.5H447.5ZM38.5 131.5H55.5V129.5H38.5V131.5ZM39.5 187.5V130.5H37.5V187.5H39.5ZM55.5 186.5H38.5V188.5H55.5V186.5ZM54.5 130.5V187.5H56.5V130.5H54.5ZM463.5 614.5H446.5V616.5H463.5V614.5ZM464.5 672.5V615.5H462.5V672.5H464.5ZM446.5 673.5H463.5V671.5H446.5V673.5ZM445.5 615.5V672.5H447.5V615.5H445.5ZM38.5 616.5H55.5V614.5H38.5V616.5ZM39.5 672.5V615.5H37.5V672.5H39.5ZM55.5 671.5H38.5V673.5H55.5V671.5ZM54.5 615.5V672.5H56.5V615.5H54.5Z" fill="black"/>
    <path d="M201.5 791.5H255.5V675L126.5 607V457L9.5 379.5V467L81.5 513V672.5L201.5 734V791.5Z" fill="var(--primary)"/>
    <path d="M501.5 21.3883L501.5 90.5L479 90.5L468 79.5615L468 63.1536L438 33.3212L422.5 33.3212L412.5 23.3771L412.5 1.5L481.5 1.5L501.5 21.3883Z" fill="var(--secondary)" stroke="black" stroke-width="2"/>
    <path d="M20.8883 1H90V23.5L79.0615 34.5H62.6536L32.8212 64.5V80L22.8771 90H1V21L20.8883 1Z" fill="var(--secondary)" stroke="black" stroke-width="2"/>
    <path d="M3.5 777.612L3.5 708.5L26 708.5L37 719.439L37 735.846L67 765.679L82.5 765.679L92.5 775.623L92.5 797.5L23.5 797.5L3.5 777.612Z" fill="var(--secondary)" stroke="black" stroke-width="2"/>
    <path d="M478.612 797.5L409.5 797.5L409.5 775L420.439 764L436.846 764L466.679 734L466.679 718.5L476.623 708.5L498.5 708.5L498.5 777.5L478.612 797.5Z" fill="var(--secondary)" stroke="black" stroke-width="2"/>
</svg>